<?xml version='1.0' encoding='utf-8'?>
<svg xmlns="http://www.w3.org/2000/svg" version="1.2" baseProfile="tiny" id="Capa_2" x="0px" y="0px" viewBox="0 0 612 1008"> <path id="XMLID_1_" fill="none" stroke="#000000" stroke-width="4.8189" stroke-miterlimit="10" d="M441.2,331.3 c-9-13.6-7.6-31.3-5.9-47.5c4.7-44.4,9.6-89.9,28.9-130.2c4.3-9,9.5-18.6,7.6-28.5c-0.3-1.7-0.9-3.4-2.2-4.7c-1.6-1.6-4-2.1-6.3-2.4 c-26.7-3.8-56.6,2.1-73.9,22.7c-19.6,23.4-17.5,57.6-14.3,88c-12.7,0-24,9-30.4,19.9c-6.4,10.9-8.9,23.7-11.2,36.1"/> <path id="XMLID_2_" fill="none" stroke="#000000" stroke-width="4.8189" stroke-miterlimit="10" d="M345.1,242.1 c-28.4-14.3-60.1-21.9-91.9-22.3c-18.4-0.2-37.3,2.2-53.5,11s-29.2,24.9-30.6,43.2c-1.2,15.8,6.3,31.4,17.8,42.3 c11.5,10.8,26.6,17.3,42.1,20.6c23.1,5,50.2,2.3,65.6-15.6c6.7-7.8,10.4-17.7,13.4-27.5c1.9-6.2,3.6-13.1,0.9-18.9 c-2.2-4.9-7-8.1-11.8-10.5c-23.5-12-52.9-11.8-76.2,0.7"/> <path id="XMLID_3_" fill="none" stroke="#000000" stroke-width="4.8189" stroke-miterlimit="10" d="M181.7,319.4 c-11.3,17.6-17.6,40.5-8.9,59.5c5.3,11.6,15.7,20.3,27.3,25.6s24.3,7.7,36.9,9.2c12.7,1.5,25.8,2.1,38.1-1.2s24-11.1,29.4-22.8 c3.9-8.4,4.1-18,3.9-27.3c-0.1-6.2-0.6-12.7-4.2-17.7c-7.1-9.8-22.1-8.5-33.2-3.6"/> <path id="XMLID_4_" fill="none" stroke="#000000" stroke-width="4.8189" stroke-miterlimit="10" d="M183.7,395.7 c-8.4,18.3-4.6,41.4,9.2,56.1c11.2,11.9,27.4,17.7,43.2,21.9c10.9,2.9,22.2,5.2,33.5,4.4c11.3-0.8,22.7-5.1,30.1-13.6 c9.8-11.2,11.2-27.4,11-42.3c-0.1-6.8-0.5-13.9-4-19.8c-3.5-5.9-11-9.9-17.3-7.2"/> <path id="XMLID_5_" fill="none" stroke="#000000" stroke-width="4.8189" stroke-miterlimit="10" d="M209.2,467.9 c0.2,12.5,12.2,21.2,23.6,26.2c20.8,9.2,43.9,13.2,66.6,11.7c4-0.3,8.2-0.8,11.5-3.1c5.7-4,6.7-11.9,7.3-18.8 c0.5-6.2,1-12.6-0.2-18.7c-1.2-6.1-4.4-12.2-9.7-15.5"/> <path id="XMLID_6_" fill="none" stroke="#000000" stroke-width="4.8189" stroke-miterlimit="10" d="M317.9,491 c20.1,3.4,42.7,6.3,59.1-5.8c13.4-9.8,18.9-26.8,24.9-42.2c0.7-1.8,1.4-3.6,2.9-4.8c2.2-1.8,5.3-1.9,8.1-1.7 c27.7,1.2,56.5,7.5,82.2-2.7"/> <path id="XMLID_7_" fill="none" stroke="#000000" stroke-width="4.8189" stroke-miterlimit="10" d="M438.9,329.4 c23.3,10,49.6,13.2,74.6,9.1"/> <path id="XMLID_8_" fill="none" stroke="#000000" stroke-width="4.8189" stroke-miterlimit="10" d="M492.6,338.9 c3.5-4.2,7.1-8.5,12.1-10.6c5-2.1,11.8-0.9,14.3,3.9c1.2,2.4,1.3,5.2,1.2,7.8c-0.9,27.7-11.6,54.1-17.5,81.2 c-1.4,6.3-2.5,12.7-5.3,18.5c-2.8,5.8-7.6,11-13.8,12.6c-6.2,1.6-13.8-1.5-15.7-7.6"/> <path id="XMLID_9_" fill="none" stroke="#000000" stroke-width="4.8189" stroke-miterlimit="10" d="M487.7,339.5 c0.1-6.4,5.1-11.8,10.9-14.5c5.8-2.7,12.3-3.1,18.7-3.4c19.7-1.1,39.5-2.3,59.2-3.4"/> <path id="XMLID_10_" fill="none" stroke="#000000" stroke-width="4.8189" stroke-miterlimit="10" d="M463,443.7 c2.7,9.2,6.6,19.9,15.8,22.7c3.1,0.9,6.4,0.8,9.6,0.7c35.3-1.4,70.7-2.8,106-4.2"/> </svg>