<?xml version="1.0" encoding="UTF-8"?>
<svg viewBox="0 0 744.09447 1052.362179" xmlns="http://www.w3.org/2000/svg">
 <path d="m199.2 543.2s29.82-7.6136 56.467-43.143c10.786-15.227 20.303-43.143 27.282-67.887 6.3446-13.958 4.4412-20.303 34.261-32.357 19.034-10.786 48.853-32.992 62.177-68.522 3.8067-15.862-5.0757-51.391 27.282-50.757 34.261 0 32.357 31.089 34.261 52.026-2.5378 37.433-31.723 73.597-31.723 73.597l-25.378 41.24s9.4438-0.53086 39.351 1.1354c23.715 1.3212 48.55-3.0063 81.831 7.1125 75.501 38.068 11.42 64.715 11.42 64.715 41.24 29.82 4.4412 61.543 4.4412 61.543 26.013 46.95-16.466 56.715-13.958 57.101 8.248 1.2689 36.799 31.088-12.055 57.101 0 0-53.295 23.475-82.48 23.475-19.034 3.1724-73.597 3.8068-114.84-13.324-48.853-8.2481-38.702 2.5378-79.307 10.151z"/>
</svg>
